<?xml version="1.0" encoding="UTF-8"?>
<svg width="32px" height="46px" viewBox="0 0 32 46" version="1.1" xmlns="http://www.w3.org/2000/svg" xmlns:xlink="http://www.w3.org/1999/xlink">
    <!-- Generator: sketchtool 63.1 (101010) - https://sketch.com -->
    <title>C80D58FA-C7D1-429F-8464-14F4790DA15B</title>
    <desc>Created with sketchtool.</desc>
    <g id="Wireframe" stroke="none" stroke-width="1" fill="none" fill-rule="evenodd">
        <g id="Plashon-(ExtraLarge:-Desktop---12-col)-1" transform="translate(-947.000000, -1660.000000)">
            <g id="Buld#1" transform="translate(939.000000, 1658.000000)">
                <rect id="bound" x="0" y="0" width="48" height="48"></rect>
                <circle id="Combined-Shape" fill="#0D4992" fill-rule="nonzero" opacity="0.200000003" cx="24" cy="18" r="16"></circle>
                <path d="M29.0594591,22 L18.9236898,22 L23.9516698,34.9290916 L29.0594591,22 Z M21.1359907,38.7248925 L13.0763102,18 L34.9405409,18 L26.7489929,38.7348559 L23.951881,37.629824 L21.1359907,38.7248925 Z" id="Path-69" fill="#0015FF" fill-rule="nonzero" opacity="0.3"></path>
                <path d="M20,44 L28,44 C28,46.209139 26.209139,48 24,48 C21.790861,48 20,46.209139 20,44 L20,44 L20,44 Z" id="Rectangle-72-Copy-2" fill="#0015FF" opacity="0.3"></path>
                <path d="M16,38 C16,36.8954305 16.8954305,36 18,36 C16.8954305,36 16,35.1045695 16,34 C16,32.8954305 16.8954305,32 18,32 L30,32 C31.1045695,32 32,32.8954305 32,34 C32,35.1045695 31.1045695,36 30,36 C31.1045695,36 32,36.8954305 32,38 C32,39.1045695 31.1045695,40 30,40 C31.1045695,40 32,40.8954305 32,42 C32,43.1045695 31.1045695,44 30,44 L18,44 C16.8954305,44 16,43.1045695 16,42 C16,40.8954305 16.8954305,40 18,40 C16.8954305,40 16,39.1045695 16,38 Z" id="Combined-Shape" fill="#0D4992" fill-rule="nonzero"></path>
            </g>
        </g>
    </g>
</svg>