<?xml version="1.0" encoding="UTF-8"?>
<svg width="32px" height="44px" viewBox="0 0 32 44" version="1.1" xmlns="http://www.w3.org/2000/svg" xmlns:xlink="http://www.w3.org/1999/xlink">
    <!-- Generator: sketchtool 63.1 (101010) - https://sketch.com -->
    <title>B16AE891-B54C-45E8-B56E-E4B2A8EF4BF6</title>
    <desc>Created with sketchtool.</desc>
    <g id="Wireframe" stroke="none" stroke-width="1" fill="none" fill-rule="evenodd">
        <g id="Plashon-(ExtraLarge:-Desktop---12-col)-1" transform="translate(-669.000000, -1660.000000)">
            <g id="Chair#2" transform="translate(661.000000, 1658.000000)">
                <rect id="bound" x="0" y="0" width="48" height="48"></rect>
                <path d="M18.7307265,29.6598992 C19.7976587,29.9457828 20.4308237,31.0424567 20.1449401,32.1093889 L16.948626,44.0381956 C16.6627424,45.1051279 15.5660684,45.7382928 14.4991362,45.4524092 C13.432204,45.1665256 12.799039,44.0698517 13.0849227,43.0029195 L16.2812368,31.0741128 C16.5671204,30.0071806 17.6637943,29.3740156 18.7307265,29.6598992 Z M29.8439129,31.8031142 C30.9108451,31.5172306 32.007519,32.1503956 32.2934026,33.2173278 L32.2934026,33.2173278 L34.8991794,42.9422192 C35.185063,44.0091514 34.551898,45.1058253 33.4849658,45.3917089 C32.4180336,45.6775925 31.3213597,45.0444276 31.0354761,43.9774953 L31.0354761,43.9774953 L28.4296993,34.2526039 C28.1438157,33.1856717 28.7769807,32.0889978 29.8439129,31.8031142 Z" id="Combined-Shape" fill="#0015FF" opacity="0.3"></path>
                <path d="M37,28 C38.6568542,28 40,29.3431458 40,31 C40,32.6568542 38.6568542,34 37,34 L11,34 C9.34314575,34 8,32.6568542 8,31 C8,29.3431458 9.34314575,28 11,28 L37,28 Z M33.2781583,2 C35.4872973,2 37.2781583,3.790861 37.2781583,6 C37.2781583,6.22032344 37.259955,6.44027025 37.223734,6.65759595 L34.1392668,25.164399 C34.0589022,25.646587 33.6417121,26 33.1528729,26 L14.8471271,26 C14.3582879,26 13.9410978,25.646587 13.8607332,25.164399 L10.776266,6.65759595 C10.4130858,4.47851466 11.8851645,2.41760452 14.0642457,2.0544243 C14.2815714,2.01820335 14.5015182,2 14.7218417,2 L33.2781583,2 Z" id="Combined-Shape" fill="#0D4992" fill-rule="nonzero"></path>
            </g>
        </g>
    </g>
</svg>