<?xml version="1.0" encoding="UTF-8"?>
<svg width="39px" height="30px" viewBox="0 0 39 30" version="1.1" xmlns="http://www.w3.org/2000/svg" xmlns:xlink="http://www.w3.org/1999/xlink">
    <!-- Generator: sketchtool 63.1 (101010) - https://sketch.com -->
    <title>112AB5A8-92FE-40CD-BCAE-D74A35418547</title>
    <desc>Created with sketchtool.</desc>
    <g id="Wireframe" stroke="none" stroke-width="1" fill="none" fill-rule="evenodd">
        <g id="Plashon-(ExtraLarge:-Desktop---12-col)-1" transform="translate(-1236.000000, -1668.000000)">
            <g id="Like" transform="translate(1232.000000, 1658.000000)">
                <rect id="bound" x="0" y="0" width="48" height="48"></rect>
                <path d="M18,20 L18,38 L20.3051975,38.7683992 C22.7523927,39.5841309 25.3150936,40 27.8946638,40 L35.0811766,40 C37.9412627,40 40.4037516,37.981242 40.9646606,35.1766968 L42.4630579,27.6847104 C43.1129296,24.4353519 41.0056292,21.2744013 37.7562707,20.6245296 C37.2378424,20.5208439 36.7079839,20.4861344 36.1804598,20.5213027 L29,21 L29,21 L29.7283928,12.9876796 C29.8653791,11.4808299 28.7548854,10.1482375 27.2480357,10.0112512 C27.1655697,10.0037542 27.0828061,10 27,10 C25.1388088,10 23.4140877,10.9765205 22.4565127,12.5724788 L18,20 L18,20 Z" id="Path-42" fill="#0D4992"></path>
                <rect id="Rectangle-153" fill="#0D4992" fill-rule="nonzero" opacity="0.200000003" x="4" y="18" width="10" height="22" rx="2"></rect>
            </g>
        </g>
    </g>
</svg>